<svg id="Layer_1" data-name="Layer 1" xmlns="http://www.w3.org/2000/svg" viewBox="0 0 200 100"><defs><style>.cls-1{fill:#fff;}</style></defs><path class="cls-1" d="M69.29,110.37a1.46,1.46,0,0,1-.12-.72V79.56c0-1,.25-1.22,1.22-1.22,4.72,0,9.43.07,14.14,0A11.92,11.92,0,0,1,96.59,88.94c.61,6.22-4.53,12.3-10.85,12.5-3.27.11-6.54,0-9.8,0-.44,0-.58-.2-.58-.58,0-.6,0-1.19,0-1.78s.16-.67.68-.66c3,0,5.95,0,8.92,0a8.65,8.65,0,0,0,8.55-7.77,8.56,8.56,0,0,0-7.39-9.17,9.8,9.8,0,0,0-1.33-.09H73.08c-.76,0-.78,0-.78.77v27.34a1.58,1.58,0,0,1-.12.83Z" transform="translate(-10.15 -10.37)"/><path class="cls-1" d="M210.15,95.73a4.78,4.78,0,0,0-.34,1.23,6.71,6.71,0,0,1-4.85,4.77,5.29,5.29,0,0,1-1.26.13c-2.07,0-4.13,0-6.2,0-.36,0-.48-.1-.47-.45a17.94,17.94,0,0,0,0-1.94c0-.52.21-.67.67-.67h3.71a16.3,16.3,0,0,1,1.85,0c2.21.25,4-2,4.13-3.87a4.2,4.2,0,0,0-4.49-4.7c-1.41,0-2.83-.09-4.23,0a7.81,7.81,0,0,0-7.16,6.1,8.73,8.73,0,0,0,2.85,9.3,7.14,7.14,0,0,0,4.74,1.69c2.49,0,5,0,7.47,0,.73,0,.81.08.81.78,0,.51,0,1,0,1.54a.94.94,0,0,1-.24.67h-9.85a14.85,14.85,0,0,1-2.84-1,10.8,10.8,0,0,1-5.64-7.63A12.3,12.3,0,0,1,191,91.15a9.67,9.67,0,0,1,7.93-3.9c1.43,0,2.86.06,4.29,0a6.51,6.51,0,0,1,6.56,5,6,6,0,0,0,.34,1.24Z" transform="translate(-10.15 -10.37)"/><path class="cls-1" d="M125.05,110.37a5.07,5.07,0,0,0,0-.56V91.06c0-.79-.14-.94-.94-.94-2.16,0-4.33,0-6.49,0a8.35,8.35,0,0,0-8.32,8.48A8.46,8.46,0,0,0,114.6,107a8.78,8.78,0,0,0,3.61.71c1,0,2.05,0,3.07,0,.52,0,.67.18.65.66,0,.67,0,1.34,0,2h-5.79a4.3,4.3,0,0,0-1.31-.34,12,12,0,0,1-5-2.62,10.9,10.9,0,0,1-3.72-6.69,11.1,11.1,0,0,1,2.24-8.9,11.72,11.72,0,0,1,9.38-4.56c3-.07,5.91,0,8.87,0a1.14,1.14,0,0,1,1.26,1.17q0,10.94,0,21.85s0,.08,0,.11Z" transform="translate(-10.15 -10.37)"/><path class="cls-1" d="M50.39,110.37q0-3.89,0-7.77V91c0-.73-.18-.92-.91-.92-2.25,0-4.49-.07-6.73,0a8.34,8.34,0,0,0-8.14,7.9,9,9,0,0,0,2,6.6,8.75,8.75,0,0,0,6.84,3.06c1,0,2,0,3.07,0,.47,0,.66.11.63.61,0,.68,0,1.37,0,2.05h-5.8l-1.68-.46a11.87,11.87,0,0,1-5.8-3.7,10.14,10.14,0,0,1-2.48-5.37,11.82,11.82,0,0,1,1-7.17,11.55,11.55,0,0,1,5.54-5.28,12.25,12.25,0,0,1,5.22-1.14c2.85,0,5.71,0,8.57,0a1.24,1.24,0,0,1,1.41,1.4q0,10.53,0,21c0,.23,0,.46,0,.68Z" transform="translate(-10.15 -10.37)"/><path class="cls-1" d="M149.63,110.37a1.36,1.36,0,0,1-.22-.86c0-4,0-8.07,0-12.11a10.32,10.32,0,0,0-.68-3.92A4.89,4.89,0,0,0,144,90.33h-3.93a5.07,5.07,0,0,0-5.27,4.28,20.92,20.92,0,0,0-.39,4.32c0,3.52,0,7,0,10.57a1.38,1.38,0,0,1-.19.87h-2.78a2.22,2.22,0,0,1-.19-1c0-3.39,0-6.79,0-10.18a23.4,23.4,0,0,1,.71-6,8,8,0,0,1,7.66-6c1.55,0,3.09,0,4.64,0a8.19,8.19,0,0,1,7.82,6.58,30.33,30.33,0,0,1,.55,5.62c0,3.34,0,6.67,0,10a1.72,1.72,0,0,1-.22.92Z" transform="translate(-10.15 -10.37)"/><path class="cls-1" d="M10.15,78.45a11.63,11.63,0,0,1,2.7-.1c.23,0,.34.18.37.38a5.43,5.43,0,0,1,0,.57c0,7.66,0,15.32,0,23a5,5,0,0,0,5.14,5.06c3.34,0,6.68,0,10,0,.84,0,.88,0,.87.88a14.14,14.14,0,0,1-.07,2.16H16.88a1.89,1.89,0,0,0-.21-.09,8,8,0,0,1-5.26-3.5,9.19,9.19,0,0,1-1.26-3.27Z" transform="translate(-10.15 -10.37)"/><path class="cls-1" d="M171.43,110.37c-.23-.2-.54-.15-.82-.2a11,11,0,0,1-8.82-10.4,11.81,11.81,0,0,1,4.66-10.27A10.37,10.37,0,0,1,173,87.24h7.25c.75,0,.91.16.91.91v1c0,.77-.12.89-.92.89-2.14,0-4.29.13-6.43,0-4.71-.34-9.65,4.55-9.21,9.8a9,9,0,0,0,8.49,7.86c2.34,0,4.67,0,7,0,.93,0,1.09.14,1,1.07,0,.56.18,1.15-.2,1.66Z" transform="translate(-10.15 -10.37)"/><path class="cls-1" d="M100.47,110.37a1.71,1.71,0,0,1-.13-.78V79.16c0-.77,0-.82.81-.82.54,0,1.08,0,1.62,0a.55.55,0,0,1,.65.61v30.49a1.77,1.77,0,0,1-.16.94Z" transform="translate(-10.15 -10.37)"/><path class="cls-1" d="M110.44,10.37c.93.15,1.86.27,2.78.44A26.16,26.16,0,0,1,130.3,22.63c.11.17.47.36.16.62s-.47-.09-.62-.26a29.59,29.59,0,0,0-11-7.93,23.79,23.79,0,0,0-29,9.48A25.86,25.86,0,0,0,85.73,36.6l-.06.57c0,.17-.07.29-.28.27s-.23-.17-.22-.33c0-.79.07-1.6.15-2.39A33.52,33.52,0,0,1,88,24.17,22.48,22.48,0,0,1,100,12.05a21.39,21.39,0,0,1,6.26-1.56c.09,0,.19,0,.23-.12Z" transform="translate(-10.15 -10.37)"/><path class="cls-1" d="M113.09,68.39a24.06,24.06,0,0,1-2.62-.09c-.16,0-.36,0-.38-.24s.21-.26.39-.28a48.32,48.32,0,0,0,6.67-1.1,28.92,28.92,0,0,0,12.55-6.21,19.9,19.9,0,0,0,7.1-14.8c.2-6.31-2.14-11.75-6.07-16.6a33.48,33.48,0,0,0-7.34-6.61l-.23-.17c-.17-.1-.36-.17-.18-.43s.33-.07.48,0a54,54,0,0,1,5.66,4.06,34.87,34.87,0,0,1,8.72,10.21,20.8,20.8,0,0,1,2.69,10,19.23,19.23,0,0,1-5.68,13.72,27.64,27.64,0,0,1-14.31,7.71A34.25,34.25,0,0,1,113.09,68.39Z" transform="translate(-10.15 -10.37)"/><path class="cls-1" d="M79.5,43.85a34.21,34.21,0,0,1,2.8-13.41c.08-.18.09-.5.45-.39s.13.39.09.56a40.67,40.67,0,0,0-1.3,9.44c-.05,5.46,1.08,10.6,4.38,15.1a20.09,20.09,0,0,0,14.24,8.2c6.59.84,12.61-.91,18.25-4.17A32.74,32.74,0,0,0,121.78,57c.13-.1.27-.3.48-.06s0,.33-.13.44a45,45,0,0,1-14,7.77,23.67,23.67,0,0,1-12.89.81C88.87,64.4,84.52,60.48,81.81,54.7A25.57,25.57,0,0,1,79.5,43.85Z" transform="translate(-10.15 -10.37)"/><path class="cls-1" d="M107.93,22.67a24.13,24.13,0,0,0-8.85,1.61l-.22.08c-.19.08-.39.22-.51-.1s.16-.3.3-.36A36.17,36.17,0,0,1,103,22.33a25.68,25.68,0,0,1,10.23-1.06c7.83.95,13.33,5.05,16.08,12.35,2.59,6.9,1.49,13.52-2.39,19.73-.1.16-.17.42-.47.26s-.1-.39,0-.57a25.51,25.51,0,0,0,2.21-10.77,19.88,19.88,0,0,0-14.69-18.72,23.09,23.09,0,0,0-2.59-.59A22,22,0,0,0,107.93,22.67Z" transform="translate(-10.15 -10.37)"/><path class="cls-1" d="M106.67,24.89a27,27,0,0,1,6.41.72c.16,0,.47,0,.44.31s-.33.26-.54.24a32.41,32.41,0,0,0-7.56.23,19,19,0,0,0-10.63,4.89,14.36,14.36,0,0,0-4.43,11.55,20.72,20.72,0,0,0,5,12.07,28.25,28.25,0,0,0,3,3.13c.14.13.32.24.11.46s-.3,0-.43-.06A33.67,33.67,0,0,1,89.4,47.84a17,17,0,0,1-1.86-7.49,13.85,13.85,0,0,1,5.91-11.48A20.58,20.58,0,0,1,103.82,25,23.87,23.87,0,0,1,106.67,24.89Z" transform="translate(-10.15 -10.37)"/><path class="cls-1" d="M123.82,39.15a20.7,20.7,0,0,0-.54-4.79c0-.16-.14-.33.13-.4s.31,0,.36.25c1.09,4.37,1.6,8.78.36,13.21-1.66,5.93-5.51,9.63-11.71,10.71a17.9,17.9,0,0,1-11.17-1.85A23,23,0,0,1,95.33,52c-.14-.14-.42-.26-.15-.54s.38,0,.52.11a23.78,23.78,0,0,0,9.16,4.21c8.06,1.61,15.18-2.4,17.9-10.06A18.67,18.67,0,0,0,123.82,39.15Z" transform="translate(-10.15 -10.37)"/><path class="cls-1" d="M106.84,34.85a18.57,18.57,0,0,1,7.8,1.37,5.84,5.84,0,0,1,3.63,4.23,6.58,6.58,0,0,1-.89,4.45,15.83,15.83,0,0,1-6,5.73c-.54.32-1.11.6-1.68.89-.15.07-.32.26-.47,0s0-.33.21-.43a22.8,22.8,0,0,0,4-3.18,10.23,10.23,0,0,0,2.68-4.28,5.39,5.39,0,0,0-2.45-6.14,12.6,12.6,0,0,0-5.81-1.92,19.41,19.41,0,0,0-3.41-.07c-.22,0-.33,0-.34-.25s.14-.24.3-.25Z" transform="translate(-10.15 -10.37)"/><path class="cls-1" d="M103.19,47.69a6.94,6.94,0,0,1-3-.69,5.3,5.3,0,0,1-2.93-5.6,13.1,13.1,0,0,1,3.55-7.17c.18-.2.37-.39.56-.57s.22-.27.43-.11.08.33,0,.47a16.86,16.86,0,0,0-2.08,3.35,8,8,0,0,0-.83,5,5.47,5.47,0,0,0,4.92,4.18,13.74,13.74,0,0,0,6.42-.83c.17-.06.41-.34.57,0s-.19.36-.37.43A19.39,19.39,0,0,1,103.19,47.69Z" transform="translate(-10.15 -10.37)"/><path class="cls-1" d="M156.24,110.37a1.67,1.67,0,0,1-.22-.86q0-10.73,0-21.45c0-.76.06-.81.82-.82.58,0,1.16,0,1.74,0s.66.19.65.65c0,1.7,0,3.4,0,5.09v16.48a1.39,1.39,0,0,1-.22.91Z" transform="translate(-10.15 -10.37)"/><path class="cls-1" d="M156,79.8c0-1.6-.09-1.49,1.49-1.48,1.78,0,1.62-.17,1.62,1.59,0,1.41.22,1.44-1.43,1.42h-.12C155.83,81.34,156,81.42,156,79.8Z" transform="translate(-10.15 -10.37)"/><path class="cls-1" d="M184.3,110.37a1,1,0,0,1-.24-.73q0-10.87,0-21.73c0-.5.17-.69.67-.67s1.27,0,1.91,0c.4,0,.58.14.58.57q0,11,0,22a.7.7,0,0,1-.25.6Z" transform="translate(-10.15 -10.37)"/><path class="cls-1" d="M184.07,79.82c0-1.63-.19-1.5,1.52-1.5s1.54-.1,1.54,1.54.25,1.48-1.49,1.47h-.06C183.8,81.34,184.09,81.4,184.07,79.82Z" transform="translate(-10.15 -10.37)"/></svg>